Coordinates
version=1
nRows=11
nColumns=36
inDegrees=yes

Units are S.I. units (second, meters, Newtons, ...)
If the header above contains a line with 'inDegrees', this indicates whether rotational values are in degrees (yes) or radians (no).

endheader
time	pelvis_tilt	pelvis_list	pelvis_rotation	pelvis_tx	pelvis_ty	pelvis_tz	hip_flexion_r	hip_adduction_r	hip_rotation_r	knee_angle_r	knee_angle_r_beta	ankle_angle_r	subtalar_angle_r	mtp_angle_r	hip_flexion_l	hip_adduction_l	hip_rotation_l	knee_angle_l	knee_angle_l_beta	ankle_angle_l	subtalar_angle_l	mtp_angle_l	lumbar_extension	lumbar_bending	lumbar_rotation	arm_flex_r	arm_add_r	arm_rot_r	elbow_flex_r	pro_sup_r	arm_flex_l	arm_add_l	arm_rot_l	elbow_flex_l	pro_sup_l
      0.00000000	     -1.60062005	     -1.11373386	     -3.01476093	     -0.03361001	      1.15789503	      0.01310484	      1.42027395	     -0.08165820	     -0.08580882	      4.28618864	      0.07480810	      4.30985088	    -13.57046346	     -5.69003263	      1.97932270	     -0.03637798	     -1.52244811	      5.55616445	      0.09697336	      2.56866494	    -17.84263190	     -5.69003263	     -0.23337004	     -0.56585984	     -0.19872939	      1.40125231	     -9.56271924	     25.88969857	     31.14239547	     68.34417083	      3.21167676	     -7.75793055	     33.88929422	     26.14273754	     62.31853237
      0.01666670	     -1.29429110	     -1.36647122	     -2.54979269	     -0.03562657	      1.15847157	      0.01112867	      1.22923843	      0.69968828	      1.03386260	      4.39987263	      0.07679226	      5.95118412	    -12.29407571	     -5.91937386	      1.67823490	      0.09682577	     -2.16453074	      5.13851988	      0.08968409	      2.58941904	    -18.31267629	     -5.91937386	      0.22240965	     -0.44661221	     -0.97320474	      1.91926603	    -10.49195453	     29.53213572	     31.55740041	     71.17414217	      3.68335021	     -8.14621510	     37.03511644	     25.81446913	     63.57527235
      0.03333330	     -1.77238942	     -0.60582878	     -2.63735161	     -0.03531283	      1.15904785	      0.01191873	      1.55283700	     -0.01233451	      0.82020691	      3.74579770	      0.06537650	      6.20632917	    -11.44318333	     -6.39198630	      2.30089757	      1.00377888	     -3.04590583	      5.22252202	      0.09115020	      2.76367262	    -17.90924959	     -6.39198630	      0.96705429	     -1.53733155	     -0.71613197	      1.99721519	    -10.49033713	     30.88530374	     31.79492149	     72.18074082	      4.30362894	     -8.83493144	     39.13483963	     25.58834786	     64.17136105
      0.05000000	     -1.63160844	     -0.38834369	     -2.83335831	     -0.03262366	      1.15711042	      0.01365318	      1.28931168	     -0.32544286	      0.99330988	      3.41575656	      0.05961620	      6.47024366	    -11.33435272	     -6.39919895	      1.87667446	      1.35911941	     -2.92041353	      4.80351736	      0.08383719	      3.25079395	    -17.95891406	     -6.39919895	      0.86225552	     -1.80277780	     -0.44779135	      2.00552607	    -10.45112487	     30.97697541	     31.85098190	     72.33293445	      4.29732148	     -8.97076139	     39.21106366	     25.64103070	     64.23084735
      0.06666670	     -0.79598204	     -0.19909898	     -2.87453704	     -0.03581225	      1.16069432	      0.01293248	      0.18102005	     -0.54198285	      0.90151272	      2.94064815	      0.05132399	      6.32262469	    -10.97147854	     -6.44406854	      0.70699667	      1.64021496	     -3.10337677	      4.20761711	      0.07343677	      2.90014621	    -17.72004935	     -6.44406854	     -0.33618291	     -2.12170865	     -0.13431103	      2.36011563	    -10.53424401	     31.46873201	     32.22302868	     73.39787005	      4.82184832	     -9.05360608	     40.15109279	     25.74178285	     64.76927609
      0.08333330	     -0.52559344	     -0.04295153	     -2.67272265	     -0.03338563	      1.15986356	      0.01390450	     -0.32045090	     -0.67780614	      1.02915520	      2.59524019	      0.04529549	      6.10753924	    -11.14400791	     -6.88546941	      0.27334394	      1.81539237	     -3.12752728	      4.10202266	      0.07159380	      2.75694932	    -17.92803123	     -6.88546941	     -0.58934884	     -2.35858227	      0.02696181	      2.44131891	    -10.61413056	     32.40174623	     32.49755421	     73.24974132	      5.15015937	     -9.04046523	     41.17534344	     25.41955102	     64.90897347
      0.10000000	     -0.21875512	      0.09899915	     -2.46983617	     -0.03216092	      1.16021199	      0.01409661	     -0.83351215	     -0.82212938	      0.98142656	      2.36230066	      0.04122992	      6.19044990	    -10.76817580	     -6.94631077	     -0.16754346	      1.92059507	     -3.27741011	      4.09183561	      0.07141600	      2.54317163	    -18.07615588	     -6.94631077	     -0.97615799	     -2.60375414	      0.08257722	      2.41001824	    -10.47112103	     32.09375743	     32.62614907	     73.18949083	      5.25492560	     -9.04007789	     41.01432241	     25.50484572	     64.78686410
      0.11666670	      0.11359212	      0.18099878	     -2.36433997	     -0.03322189	      1.15896955	      0.01461945	     -1.31911533	     -0.88983780	      1.24917114	      2.18000653	      0.03804829	      5.96482426	    -11.26247027	     -7.02644770	     -0.55975136	      1.97560940	     -3.63948187	      4.15726418	      0.07255795	      2.75921102	    -17.61542522	     -7.02644770	     -1.47160977	     -2.78538538	      0.14396049	      2.52511230	    -10.41843085	     32.16089059	     32.85267185	     72.75473495	      5.45813947	     -9.07862672	     40.89781907	     25.59791673	     64.48946912
      0.13333330	      0.32488515	      0.23503359	     -2.09092991	     -0.03369417	      1.15937237	      0.01501414	     -1.69610007	     -0.93601255	      0.97500787	      2.07152970	      0.03615501	      5.90806665	    -11.32333089	     -7.08109230	     -0.69278188	      1.97723936	     -3.39339220	      4.24198464	      0.07403660	      2.34034715	    -18.18481464	     -7.08109230	     -1.82744647	     -2.91603223	     -0.00677015	      2.70126038	    -10.39367416	     32.64131580	     32.92903022	     72.90075102	      5.68143046	     -9.11718368	     41.13686302	     25.45307161	     64.39735472
      0.15000000	      0.36817163	      0.30027863	     -1.93065815	     -0.03370910	      1.15852895	      0.01496692	     -1.79418517	     -0.97128521	      0.88962542	      2.03102757	      0.03544812	      5.67557156	    -11.88499558	     -7.26303707	     -0.63214568	      1.98456274	     -3.19329071	      4.33637160	      0.07568396	      1.87705898	    -18.67231760	     -7.26303707	     -1.94766105	     -3.03219675	     -0.06958257	      2.78597527	    -10.44351059	     32.45280899	     33.15185855	     79.37338980	      5.95871189	     -9.30451995	     42.17632527	     25.42130833	     64.98692253
      0.16666670	      0.57485033	      0.33288805	     -1.85733311	     -0.03139803	      1.15811908	      0.01585876	     -2.08012417	     -0.98116555	      0.56109950	      1.96850055	      0.03435682	      5.96774265	    -11.68119425	     -7.30822660	     -0.76596336	      1.96617508	     -3.07737469	      4.43800114	      0.07745773	      2.15068739	    -18.10198289	     -7.30822660	     -2.28797817	     -3.09412602	     -0.02200761	      2.85747187	    -10.42661796	     32.75566379	     33.13344018	     77.57517953	      5.84328983	     -9.43694394	     41.86639441	     25.65817274	     64.35268215
